<svg xmlns="http://www.w3.org/2000/svg" width="286" height="273" viewBox="0 0 286 273" version="1.1"><path d="M 95.544 105.589 C 87.731 108.450, 84 113.915, 84 122.500 C 84 131.332, 86.944 135.255, 100.500 144.481 C 112.879 152.907, 116 156.800, 116 163.815 C 116 168.891, 113.036 172.644, 107.946 174.014 C 98.385 176.589, 89.527 169.420, 87.498 157.465 C 86.426 151.145, 85.955 150, 84.433 150 C 83.260 150, 83 152.449, 83 163.500 C 83 174.833, 83.241 177, 84.500 177 C 85.325 177, 86 176.311, 86 175.469 C 86 173.117, 88.228 172.780, 92.357 174.505 C 107.074 180.654, 125.608 176.669, 130.529 166.298 C 132.644 161.842, 132.716 153.275, 130.672 149.361 C 128.539 145.275, 124.407 141.607, 112.825 133.519 C 100.606 124.987, 98.500 122.461, 98.500 116.340 C 98.500 112.635, 99.002 111.395, 101.306 109.413 C 104.863 106.354, 112.037 106.115, 116.611 108.905 C 119.850 110.879, 124.988 119.770, 125.015 123.446 C 125.035 126.052, 126.506 128.423, 127.661 127.710 C 128.147 127.409, 128.680 122.176, 128.846 116.082 C 129.104 106.542, 128.927 105, 127.573 105 C 126.708 105, 126 105.648, 126 106.441 C 126 109.024, 124.284 109.040, 118.847 106.509 C 112.597 103.599, 102.109 103.185, 95.544 105.589 M 139 105.934 C 139 106.489, 140.440 107.316, 142.200 107.772 C 144.721 108.425, 145.586 109.323, 146.282 112.009 C 147.639 117.245, 146.768 168.033, 145.276 170.635 C 144.603 171.809, 142.916 173.055, 141.526 173.404 C 135.938 174.807, 139.374 176, 149 176 C 159.361 176, 161.539 174.993, 155.492 172.997 C 153.563 172.361, 151.530 170.990, 150.973 169.950 C 150.354 168.793, 150.066 159.389, 150.231 145.668 L 150.500 123.275 171.318 149.638 C 190.078 173.394, 192.425 176, 195.068 176 L 198 176 198 145.468 C 198 112.358, 198.522 108.500, 203.087 107.831 C 204.328 107.649, 205.529 106.938, 205.755 106.250 C 206.066 105.306, 203.715 105, 196.142 105 C 185.468 105, 182.434 106.232, 188.851 107.960 C 194.629 109.516, 195.093 111.465, 194.773 132.856 L 194.500 151.185 175.974 128.342 L 157.449 105.500 148.224 105.212 C 142.497 105.034, 139 105.307, 139 105.934" stroke="none" fill="#ffffff" fill-rule="evenodd"/><path d="M 131 15.459 C 130.175 15.658, 126.125 16.366, 122 17.034 C 79.929 23.843, 42.551 56.252, 29.185 97.512 C 24.667 111.458, 23.500 119.154, 23.500 135 C 23.500 150.804, 24.669 158.547, 29.137 172.343 C 42.255 212.841, 76.478 243.410, 119 252.610 C 130.809 255.166, 155.191 255.166, 167 252.610 C 202.788 244.867, 232.996 221.995, 249.240 190.342 C 259.161 171.012, 262.450 157.233, 262.450 135 C 262.450 123.699, 261.951 117.197, 260.610 111 C 250.333 63.502, 214.565 27.805, 166.838 17.411 C 160.201 15.966, 134.677 14.576, 131 15.459 M 95.544 105.589 C 87.731 108.450, 84 113.915, 84 122.500 C 84 131.332, 86.944 135.255, 100.500 144.481 C 112.879 152.907, 116 156.800, 116 163.815 C 116 168.891, 113.036 172.644, 107.946 174.014 C 98.385 176.589, 89.527 169.420, 87.498 157.465 C 86.426 151.145, 85.955 150, 84.433 150 C 83.260 150, 83 152.449, 83 163.500 C 83 174.833, 83.241 177, 84.500 177 C 85.325 177, 86 176.311, 86 175.469 C 86 173.117, 88.228 172.780, 92.357 174.505 C 107.074 180.654, 125.608 176.669, 130.529 166.298 C 132.644 161.842, 132.716 153.275, 130.672 149.361 C 128.539 145.275, 124.407 141.607, 112.825 133.519 C 100.606 124.987, 98.500 122.461, 98.500 116.340 C 98.500 112.635, 99.002 111.395, 101.306 109.413 C 104.863 106.354, 112.037 106.115, 116.611 108.905 C 119.850 110.879, 124.988 119.770, 125.015 123.446 C 125.035 126.052, 126.506 128.423, 127.661 127.710 C 128.147 127.409, 128.680 122.176, 128.846 116.082 C 129.104 106.542, 128.927 105, 127.573 105 C 126.708 105, 126 105.648, 126 106.441 C 126 109.024, 124.284 109.040, 118.847 106.509 C 112.597 103.599, 102.109 103.185, 95.544 105.589 M 139 105.934 C 139 106.489, 140.440 107.316, 142.200 107.772 C 144.721 108.425, 145.586 109.323, 146.282 112.009 C 147.639 117.245, 146.768 168.033, 145.276 170.635 C 144.603 171.809, 142.916 173.055, 141.526 173.404 C 135.938 174.807, 139.374 176, 149 176 C 159.361 176, 161.539 174.993, 155.492 172.997 C 153.563 172.361, 151.530 170.990, 150.973 169.950 C 150.354 168.793, 150.066 159.389, 150.231 145.668 L 150.500 123.275 171.318 149.638 C 190.078 173.394, 192.425 176, 195.068 176 L 198 176 198 145.468 C 198 112.358, 198.522 108.500, 203.087 107.831 C 204.328 107.649, 205.529 106.938, 205.755 106.250 C 206.066 105.306, 203.715 105, 196.142 105 C 185.468 105, 182.434 106.232, 188.851 107.960 C 194.629 109.516, 195.093 111.465, 194.773 132.856 L 194.500 151.185 175.974 128.342 L 157.449 105.500 148.224 105.212 C 142.497 105.034, 139 105.307, 139 105.934" stroke="none" fill="#55bfea" fill-rule="evenodd"/></svg>