<?xml version="1.0" standalone="no"?>
<!DOCTYPE svg PUBLIC "-//W3C//DTD SVG 20010904//EN"
 "http://www.w3.org/TR/2001/REC-SVG-20010904/DTD/svg10.dtd">
<svg version="1.0" xmlns="http://www.w3.org/2000/svg"
 width="256.000000pt" height="256.000000pt" viewBox="0 0 256.000000 256.000000"
 preserveAspectRatio="xMidYMid meet">

<g transform="translate(0.000000,256.000000) scale(0.100000,-0.100000)"
fill="#FFFFFF" stroke="none">
<path d="M869 2130 c-111 -33 -156 -172 -85 -264 l27 -36 -26 -76 c-27 -79
-35 -184 -20 -256 29 -130 141 -226 325 -274 89 -24 300 -24 390 0 154 42 270
131 305 236 28 82 24 195 -9 294 -26 78 -27 79 -8 100 32 34 44 65 44 111 0
82 -46 143 -123 166 -32 10 -46 9 -84 -6 -25 -9 -55 -30 -67 -45 l-20 -28 -57
21 c-82 30 -272 30 -355 0 l-59 -21 -29 34 c-16 18 -46 38 -66 44 -42 11 -47
11 -83 0z m552 -86 c129 -38 241 -128 292 -234 159 -329 -26 -571 -435 -570
-160 0 -306 45 -391 119 -78 69 -111 190 -84 317 39 184 166 322 338 368 74
20 212 20 280 0z"/>
<path d="M1040 1799 c-66 -27 -118 -90 -134 -165 -10 -47 15 -100 58 -121 48
-23 108 -5 158 48 104 109 43 288 -82 238z m67 -100 c12 -12 6 -39 -11 -51
-15 -10 -26 0 -26 26 0 35 16 46 37 25z"/>
<path d="M1434 1795 c-52 -36 -58 -143 -11 -214 33 -50 104 -86 152 -77 45 9
85 57 85 102 0 72 -50 148 -122 185 -45 23 -76 24 -104 4z m60 -107 c14 -23
-11 -53 -30 -37 -23 19 -15 64 10 56 5 -2 14 -10 20 -19z"/>
<path d="M1212 1578 c-21 -21 -13 -48 18 -66 35 -20 40 -56 9 -72 -16 -9 -27
-7 -55 9 -38 22 -57 20 -47 -5 7 -19 55 -44 85 -44 13 0 33 6 44 14 17 12 22
12 39 0 29 -21 71 -17 102 10 22 20 25 27 16 37 -10 10 -16 9 -30 -3 -29 -24
-49 -28 -72 -12 -28 20 -27 48 3 62 36 16 50 47 30 66 -19 19 -124 22 -142 4z"/>
<path d="M1535 1106 c-69 -31 -105 -101 -105 -203 1 -112 44 -180 131 -203 74
-20 152 17 189 91 28 55 28 177 -1 236 -38 78 -135 114 -214 79z m112 -90 c24
-21 28 -32 31 -93 5 -81 -14 -129 -53 -139 -73 -18 -109 31 -103 139 3 61 7
72 31 93 16 13 37 24 47 24 10 0 31 -11 47 -24z"/>
<path d="M476 1093 c-3 -10 -4 -27 -2 -38 3 -18 12 -20 84 -23 45 -2 82 -5 82
-7 0 -3 -39 -63 -86 -134 -67 -100 -85 -135 -82 -157 l3 -29 145 0 145 0 0 35
0 35 -82 3 c-46 2 -83 6 -83 11 0 4 36 63 80 132 58 90 80 132 80 156 l0 33
-139 0 c-124 0 -140 -2 -145 -17z"/>
<path d="M825 1098 c-3 -8 -4 -99 -3 -203 l3 -190 125 0 125 0 0 35 0 35 -80
5 -80 5 -3 38 -3 37 58 0 c73 0 85 8 81 51 l-3 34 -67 3 -68 3 0 39 0 39 78 3
77 3 0 35 0 35 -118 3 c-90 2 -119 0 -122 -10z"/>
<path d="M1120 1070 l0 -40 50 0 50 0 0 -166 0 -165 43 3 42 3 3 162 2 162 48
3 c47 3 47 3 47 38 l0 35 -142 3 -143 3 0 -41z"/>
<path d="M1817 1103 c-4 -3 -7 -72 -7 -152 0 -166 10 -200 71 -236 42 -24 127
-25 164 -1 57 37 65 66 65 239 l0 158 -42 -3 -43 -3 -3 -149 c-1 -90 -7 -155
-14 -163 -6 -7 -25 -13 -44 -13 -56 0 -64 23 -64 187 l0 143 -38 0 c-21 0 -42
-3 -45 -7z"/>
<path d="M1760 597 c-36 -18 -53 -58 -40 -93 32 -84 140 -63 140 28 0 55 -52
89 -100 65z m54 -30 c39 -29 -1 -106 -41 -81 -25 16 -29 65 -7 81 10 7 21 13
24 13 3 0 14 -6 24 -13z"/>
<path d="M560 524 c0 -56 3 -75 13 -72 6 3 13 14 15 26 2 15 10 22 26 22 25 0
56 28 56 52 0 25 -35 48 -73 48 l-37 0 0 -76z m75 26 c0 -8 -10 -16 -22 -18
-18 -3 -23 2 -23 18 0 16 5 21 23 18 12 -2 22 -10 22 -18z"/>
<path d="M717 568 c-25 -59 -39 -109 -33 -115 3 -4 14 1 24 10 24 22 61 22 78
0 25 -36 27 -1 4 67 -28 80 -51 92 -73 38z m43 -45 c0 -7 -7 -13 -16 -13 -11
0 -14 5 -10 16 3 9 6 21 6 27 0 16 20 -14 20 -30z"/>
<path d="M852 528 c4 -84 25 -107 30 -33 l3 47 33 -47 c18 -25 38 -45 45 -42
7 2 13 30 15 75 2 60 0 72 -13 72 -11 0 -15 -11 -15 -40 0 -22 -3 -40 -8 -40
-4 0 -18 18 -32 40 -14 23 -32 40 -43 40 -16 0 -18 -8 -15 -72z"/>
<path d="M1022 528 l3 -73 44 1 c74 2 104 62 60 118 -17 21 -29 26 -65 26
l-45 0 3 -72z m88 23 c5 -11 10 -24 10 -30 0 -16 -30 -41 -51 -41 -16 0 -19 7
-19 45 0 41 2 45 25 45 14 0 29 -8 35 -19z"/>
<path d="M1207 568 c-25 -59 -39 -109 -33 -115 3 -4 14 1 24 10 24 22 61 22
78 0 34 -47 21 44 -18 120 -14 27 -36 20 -51 -15z m43 -45 c0 -7 -7 -13 -16
-13 -11 0 -14 5 -10 16 3 9 6 21 6 27 0 16 20 -14 20 -30z"/>
<path d="M1421 586 c-20 -24 -9 -50 27 -65 45 -20 43 -45 -2 -37 -39 8 -56 -8
-27 -23 32 -18 69 -13 85 11 20 27 5 56 -35 70 -39 13 -31 34 11 30 23 -3 31
0 28 10 -7 19 -72 22 -87 4z"/>
<path d="M1559 598 c0 -2 -1 -34 -2 -73 -1 -55 2 -70 14 -70 9 0 15 12 17 33
3 29 6 33 30 30 23 -2 27 -8 27 -33 1 -20 6 -30 15 -30 12 0 16 17 18 73 3 66
1 73 -15 70 -11 -2 -18 -12 -18 -28 0 -20 -6 -26 -27 -28 -25 -3 -28 0 -28 27
0 21 -5 31 -15 31 -8 0 -15 -1 -16 -2z"/>
<path d="M1902 528 c2 -42 7 -72 13 -71 6 1 11 11 13 23 2 13 11 20 26 20 26
0 56 28 56 53 0 27 -30 47 -71 47 l-40 0 3 -72z m73 22 c0 -8 -10 -16 -22 -18
-18 -3 -23 2 -23 18 0 16 5 21 23 18 12 -2 22 -10 22 -18z"/>
</g>
</svg>
